<svg xmlns="http://www.w3.org/2000/svg" xmlns:xlink="http://www.w3.org/1999/xlink" width="689.412" height="164.031" viewBox="0 0 689.412 164.031">
  <defs>
    <linearGradient id="linear-gradient" x1="0.925" y1="0.5" x2="0.108" y2="-0.686" gradientUnits="objectBoundingBox">
      <stop offset="0" stop-color="#53cccc"/>
      <stop offset="0.154" stop-color="#09c4e6"/>
      <stop offset="0.361" stop-color="#08baf6"/>
      <stop offset="0.733" stop-color="#069af5"/>
      <stop offset="1" stop-color="#107bd8"/>
    </linearGradient>
  </defs>
  <path id="about" d="M107.091-33.945H40.515L28.251,0H7.227L62.415-151.767H85.41L140.379,0H119.355ZM101.4-50.151,73.8-127.239,46.209-50.151Zm95.046-47.523a47.116,47.116,0,0,1,17.958-17.52,53.126,53.126,0,0,1,26.937-6.789,56,56,0,0,1,29.127,7.665,54.265,54.265,0,0,1,20.367,21.571q7.446,13.907,7.446,32.3,0,18.177-7.446,32.412A55.04,55.04,0,0,1,270.355-5.913a54.966,54.966,0,0,1-29.017,7.884q-15.549,0-27.266-6.789a46.18,46.18,0,0,1-17.63-17.3V0H176.514V-162.06h19.929Zm81.468,37.23q0-13.578-5.475-23.652a37.906,37.906,0,0,0-14.783-15.33,40.924,40.924,0,0,0-20.477-5.256,39.86,39.86,0,0,0-20.258,5.366,39.229,39.229,0,0,0-14.892,15.549,48.175,48.175,0,0,0-5.584,23.542q0,13.578,5.584,23.762a39.228,39.228,0,0,0,14.892,15.549,39.86,39.86,0,0,0,20.258,5.366,40.272,40.272,0,0,0,20.477-5.366,38.494,38.494,0,0,0,14.783-15.549Q277.911-46.647,277.911-60.444ZM388.944,1.971a61.443,61.443,0,0,1-30.551-7.665,54.568,54.568,0,0,1-21.462-21.791q-7.775-14.125-7.775-32.74,0-18.4,7.993-32.522a55.08,55.08,0,0,1,21.79-21.681,63.217,63.217,0,0,1,30.879-7.556,63.217,63.217,0,0,1,30.879,7.556,55.275,55.275,0,0,1,21.79,21.572q7.993,14.016,7.993,32.631t-8.212,32.74A56.921,56.921,0,0,1,420.042-5.694,63.737,63.737,0,0,1,388.944,1.971Zm0-17.52a42.081,42.081,0,0,0,20.148-5.037A38.326,38.326,0,0,0,424.313-35.7q5.8-10.074,5.8-24.528t-5.694-24.528a37.286,37.286,0,0,0-14.892-15,41.548,41.548,0,0,0-19.929-4.927,41.358,41.358,0,0,0-20.038,4.927,36.127,36.127,0,0,0-14.564,15q-5.475,10.074-5.475,24.528,0,14.673,5.366,24.747a35.663,35.663,0,0,0,14.345,15A40.293,40.293,0,0,0,388.944-15.549Zm206.3-104.463V0H575.313V-17.739A38.8,38.8,0,0,1,559.435-3.395a49.049,49.049,0,0,1-22.447,5.147,53.8,53.8,0,0,1-25.185-5.8,42.192,42.192,0,0,1-17.629-17.411q-6.461-11.607-6.461-28.251v-70.3h19.71v67.671q0,17.739,8.979,27.266t24.528,9.527q15.987,0,25.185-9.855t9.2-28.689v-65.919Zm70.08,16.425V-32.85q0,8.76,3.723,12.374t12.921,3.614h14.673V0H678.681q-16.644,0-24.966-7.665T645.393-32.85v-70.737H629.844v-16.425h15.549v-30.222h19.929v30.222h31.317v16.425Z" transform="translate(-7.227 162.06)" fill="url(#linear-gradient)"/>
</svg>
