<svg xmlns="http://www.w3.org/2000/svg" width="10" height="134" viewBox="0 0 10 134">
  <g id="eduacation_bar" transform="translate(-950 -809)">
    <g id="diff_bar" data-name="diff bar" transform="translate(954 823)">
      <rect id="diff_bar-2" data-name="diff bar" width="120" height="2" transform="translate(2) rotate(90)" fill="#fff"/>
    </g>
    <path id="Icon_metro-cross" data-name="Icon metro-cross" d="M12.48,9.962h0L9.446,6.928l3.034-3.034h0a.313.313,0,0,0,0-.442L11.046,2.019a.313.313,0,0,0-.442,0h0L7.571,5.053,4.537,2.019h0a.313.313,0,0,0-.442,0L2.662,3.452a.313.313,0,0,0,0,.442h0L5.7,6.928,2.662,9.962h0a.313.313,0,0,0,0,.442L4.1,11.837a.313.313,0,0,0,.442,0h0L7.571,8.8,10.6,11.837h0a.313.313,0,0,0,.442,0L12.479,10.4a.313.313,0,0,0,0-.442Z" transform="translate(947.429 807.072)" fill="#fff"/>
  </g>
</svg>
