<svg xmlns="http://www.w3.org/2000/svg" xmlns:xlink="http://www.w3.org/1999/xlink" width="868.894" height="122.66" viewBox="0 0 868.894 122.66">
  <defs>
    <linearGradient id="linear-gradient" x1="0.83" y1="1.21" x2="0.215" y2="-1.599" gradientUnits="objectBoundingBox">
      <stop offset="0" stop-color="#53cccc"/>
      <stop offset="0.154" stop-color="#09c4e6"/>
      <stop offset="0.361" stop-color="#08baf6"/>
      <stop offset="0.733" stop-color="#069af5"/>
      <stop offset="1" stop-color="#107bd8"/>
    </linearGradient>
  </defs>
  <path id="education_word" d="M26.544-98.434V-61.62H66.676v11.85H26.544v37.92H71.416V0H12.166V-110.284h59.25v11.85Zm73.944,54.826q0-13.272,5.372-23.305a38.977,38.977,0,0,1,14.773-15.563,40.819,40.819,0,0,1,21.093-5.53,39.162,39.162,0,0,1,18.8,4.661A33.636,33.636,0,0,1,173.8-71.1v-45.82h14.536V0H173.8V-16.274A33.647,33.647,0,0,1,161.16-3.555a37.625,37.625,0,0,1-19.592,4.977,39.656,39.656,0,0,1-20.935-5.688A39.709,39.709,0,0,1,105.86-20.224,49.7,49.7,0,0,1,100.488-43.608Zm73.312.158a35.2,35.2,0,0,0-3.95-17.064,27.893,27.893,0,0,0-10.665-11.139,29.054,29.054,0,0,0-14.773-3.871,29.091,29.091,0,0,0-14.694,3.792,27.51,27.51,0,0,0-10.586,11.06,35.2,35.2,0,0,0-3.95,17.064,36.014,36.014,0,0,0,3.95,17.3,27.943,27.943,0,0,0,10.586,11.218,28.629,28.629,0,0,0,14.694,3.871,29.054,29.054,0,0,0,14.773-3.871A27.772,27.772,0,0,0,169.85-26.307,35.665,35.665,0,0,0,173.8-43.45ZM302.1-86.584V0H287.718V-12.8A27.992,27.992,0,0,1,276.263-2.449a35.387,35.387,0,0,1-16.2,3.713A38.817,38.817,0,0,1,241.9-2.923a30.44,30.44,0,0,1-12.719-12.561q-4.661-8.374-4.661-20.382V-86.584h14.22v48.822q0,12.8,6.478,19.671t17.7,6.873q11.534,0,18.17-7.11t6.636-20.7V-86.584ZM333.7-43.45q0-13.43,5.372-23.463A38.65,38.65,0,0,1,354-82.476a42.9,42.9,0,0,1,21.883-5.53q15.958,0,26.307,7.742t13.667,21.488H400.372a22.233,22.233,0,0,0-8.611-12.482q-6.4-4.582-15.879-4.582-12.324,0-19.908,8.453T348.39-43.45q0,15.642,7.584,24.174t19.908,8.532q9.48,0,15.8-4.424a22.431,22.431,0,0,0,8.69-12.64h15.484a38.084,38.084,0,0,1-13.9,21.251q-10.428,7.979-26.07,7.979A42.9,42.9,0,0,1,354-4.108,38.527,38.527,0,0,1,339.068-19.75Q333.7-29.862,333.7-43.45Zm108.546-.158q0-13.272,5.372-23.305a38.977,38.977,0,0,1,14.773-15.563,40.52,40.52,0,0,1,20.935-5.53q11.376,0,19.75,4.9a32.635,32.635,0,0,1,12.482,12.324v-15.8H530.09V0H515.554V-16.116A33.874,33.874,0,0,1,502.835-3.555a38.049,38.049,0,0,1-19.671,4.977,39.248,39.248,0,0,1-20.856-5.688,39.894,39.894,0,0,1-14.694-15.958A49.7,49.7,0,0,1,442.242-43.608Zm73.312.158a35.2,35.2,0,0,0-3.95-17.064,27.893,27.893,0,0,0-10.665-11.139,29.054,29.054,0,0,0-14.773-3.871,29.091,29.091,0,0,0-14.694,3.792,27.51,27.51,0,0,0-10.586,11.06,35.2,35.2,0,0,0-3.95,17.064,36.014,36.014,0,0,0,3.95,17.3,27.943,27.943,0,0,0,10.586,11.218,28.629,28.629,0,0,0,14.694,3.871,29.054,29.054,0,0,0,14.773-3.871A27.772,27.772,0,0,0,511.6-26.307,35.664,35.664,0,0,0,515.554-43.45ZM584.6-74.734V-23.7q0,6.32,2.686,8.927t9.322,2.607h10.586V0H594.238Q582.23,0,576.226-5.53t-6-18.17V-74.734H559v-11.85h11.218v-21.8H584.6v21.8h22.594v11.85Zm60.04-25.912a9.456,9.456,0,0,1-6.952-2.844,9.457,9.457,0,0,1-2.844-6.952,9.457,9.457,0,0,1,2.844-6.952,9.457,9.457,0,0,1,6.952-2.844,9.015,9.015,0,0,1,6.715,2.844,9.6,9.6,0,0,1,2.765,6.952,9.6,9.6,0,0,1-2.765,6.952A9.015,9.015,0,0,1,644.64-100.646Zm6.952,14.062V0H637.214V-86.584ZM726.484,1.422a44.329,44.329,0,0,1-22.041-5.53,39.368,39.368,0,0,1-15.484-15.721Q683.35-30.02,683.35-43.45a46.812,46.812,0,0,1,5.767-23.463,39.738,39.738,0,0,1,15.721-15.642,45.609,45.609,0,0,1,22.278-5.451,45.609,45.609,0,0,1,22.278,5.451,39.879,39.879,0,0,1,15.721,15.563q5.767,10.112,5.767,23.542t-5.925,23.621A41.067,41.067,0,0,1,748.92-4.108,45.984,45.984,0,0,1,726.484,1.422Zm0-12.64a30.36,30.36,0,0,0,14.536-3.634A27.65,27.65,0,0,0,752-25.754q4.187-7.268,4.187-17.7t-4.108-17.7a26.9,26.9,0,0,0-10.744-10.823,29.975,29.975,0,0,0-14.378-3.555A29.838,29.838,0,0,0,712.5-71.969a26.064,26.064,0,0,0-10.507,10.823q-3.95,7.268-3.95,17.7,0,10.586,3.871,17.854a25.729,25.729,0,0,0,10.349,10.823A29.07,29.07,0,0,0,726.484-11.218ZM844.668-88.164q15.8,0,25.6,9.559t9.8,27.571V0H865.84V-48.98q0-12.956-6.478-19.829t-17.7-6.873q-11.376,0-18.091,7.11t-6.715,20.7V0H802.482V-86.584H816.86V-74.26a28.545,28.545,0,0,1,11.613-10.27A36.021,36.021,0,0,1,844.668-88.164Z" transform="translate(-11.666 120.738)" stroke="#707070" stroke-width="1" fill="url(#linear-gradient)"/>
</svg>
