<svg xmlns="http://www.w3.org/2000/svg" xmlns:xlink="http://www.w3.org/1999/xlink" width="947.052" height="161.318" viewBox="0 0 947.052 161.318">
  <defs>
    <linearGradient id="linear-gradient" x1="0.844" y1="0.738" x2="0.239" y2="-0.95" gradientUnits="objectBoundingBox">
      <stop offset="0" stop-color="#53cccc"/>
      <stop offset="0.154" stop-color="#09c4e6"/>
      <stop offset="0.361" stop-color="#08baf6"/>
      <stop offset="0.733" stop-color="#069af5"/>
      <stop offset="1" stop-color="#107bd8"/>
    </linearGradient>
  </defs>
  <path id="Experience" d="M26.544-98.434V-61.62H66.676v11.85H26.544v37.92H71.416V0H12.166V-110.284h59.25v11.85ZM151.048,0l-20.54-32.232L110.758,0H95.748l27.966-42.976L95.748-86.584h16.274l20.54,32.074,19.592-32.074h15.01L139.356-43.766,167.322,0ZM208.56-70.626a34.285,34.285,0,0,1,12.719-12.4,38.049,38.049,0,0,1,19.671-4.977,40.52,40.52,0,0,1,20.935,5.53,38.977,38.977,0,0,1,14.773,15.563q5.372,10.033,5.372,23.305a49.7,49.7,0,0,1-5.372,23.384A39.709,39.709,0,0,1,261.885-4.266,39.656,39.656,0,0,1,240.95,1.422a37.736,37.736,0,0,1-19.513-4.977,35.589,35.589,0,0,1-12.877-12.4V41.08H194.182V-86.584H208.56Zm58.776,27.018a35.2,35.2,0,0,0-3.95-17.064,27.348,27.348,0,0,0-10.665-11.06,29.525,29.525,0,0,0-14.773-3.792,28.757,28.757,0,0,0-14.615,3.871,28.3,28.3,0,0,0-10.744,11.218A34.757,34.757,0,0,0,208.56-43.45a35.1,35.1,0,0,0,4.029,17.143,28.3,28.3,0,0,0,10.744,11.218,28.757,28.757,0,0,0,14.615,3.871,29.054,29.054,0,0,0,14.773-3.871,27.772,27.772,0,0,0,10.665-11.218A36.014,36.014,0,0,0,267.336-43.608Zm125.294-3a84.614,84.614,0,0,1-.474,8.69h-69.2q.79,12.8,8.769,19.987a27.89,27.89,0,0,0,19.355,7.189q9.322,0,15.563-4.345A23,23,0,0,0,375.408-26.7h15.484a37.221,37.221,0,0,1-13.9,20.3Q366.56,1.422,351.076,1.422a43.767,43.767,0,0,1-22.041-5.53,39.144,39.144,0,0,1-15.247-15.721q-5.53-10.191-5.53-23.621t5.372-23.542a37.711,37.711,0,0,1,15.089-15.563,44.916,44.916,0,0,1,22.357-5.451,43.454,43.454,0,0,1,21.8,5.372A37.2,37.2,0,0,1,387.5-67.861,43.6,43.6,0,0,1,392.63-46.61Zm-14.852-3a26.522,26.522,0,0,0-3.634-14.141,23.632,23.632,0,0,0-9.875-9.006,30.8,30.8,0,0,0-13.825-3.081,26.648,26.648,0,0,0-18.565,6.952q-7.663,6.952-8.769,19.276Zm60.83-22.91a27.58,27.58,0,0,1,10.823-11.534q7.031-4.108,17.143-4.108v14.852h-3.792q-24.174,0-24.174,26.228V0H424.23V-86.584h14.378Zm64.622-28.124a9.457,9.457,0,0,1-6.952-2.844,9.457,9.457,0,0,1-2.844-6.952,9.457,9.457,0,0,1,2.844-6.952,9.457,9.457,0,0,1,6.952-2.844,9.016,9.016,0,0,1,6.715,2.844,9.6,9.6,0,0,1,2.765,6.952,9.6,9.6,0,0,1-2.765,6.952A9.015,9.015,0,0,1,503.23-100.646Zm6.952,14.062V0H495.8V-86.584ZM626.312-46.61a84.623,84.623,0,0,1-.474,8.69h-69.2q.79,12.8,8.769,19.987a27.89,27.89,0,0,0,19.355,7.189q9.322,0,15.563-4.345A23,23,0,0,0,609.09-26.7h15.484a37.221,37.221,0,0,1-13.9,20.3q-10.428,7.821-25.912,7.821a43.767,43.767,0,0,1-22.041-5.53A39.144,39.144,0,0,1,547.47-19.829q-5.53-10.191-5.53-23.621t5.372-23.542A37.711,37.711,0,0,1,562.4-82.555a44.916,44.916,0,0,1,22.357-5.451,43.454,43.454,0,0,1,21.8,5.372,37.2,37.2,0,0,1,14.615,14.773A43.6,43.6,0,0,1,626.312-46.61Zm-14.852-3a26.522,26.522,0,0,0-3.634-14.141,23.632,23.632,0,0,0-9.875-9.006,30.8,30.8,0,0,0-13.825-3.081,26.648,26.648,0,0,0-18.565,6.952q-7.663,6.952-8.769,19.276ZM700.1-88.164q15.8,0,25.6,9.559t9.8,27.571V0H721.27V-48.98q0-12.956-6.478-19.829t-17.7-6.873q-11.376,0-18.091,7.11t-6.715,20.7V0H657.912V-86.584H672.29V-74.26A28.545,28.545,0,0,1,683.9-84.53,36.021,36.021,0,0,1,700.1-88.164ZM766.3-43.45q0-13.43,5.372-23.463A38.651,38.651,0,0,1,786.6-82.476a42.9,42.9,0,0,1,21.883-5.53q15.958,0,26.307,7.742T848.46-58.776H832.976a22.233,22.233,0,0,0-8.611-12.482q-6.4-4.582-15.879-4.582-12.324,0-19.908,8.453T780.994-43.45q0,15.642,7.584,24.174t19.908,8.532q9.48,0,15.8-4.424a22.431,22.431,0,0,0,8.69-12.64H848.46a38.083,38.083,0,0,1-13.9,21.251q-10.428,7.979-26.07,7.979A42.9,42.9,0,0,1,786.6-4.108,38.527,38.527,0,0,1,771.672-19.75Q766.3-29.862,766.3-43.45Zm192.918-3.16a84.623,84.623,0,0,1-.474,8.69h-69.2q.79,12.8,8.769,19.987a27.89,27.89,0,0,0,19.355,7.189q9.322,0,15.563-4.345A23,23,0,0,0,942-26.7H957.48a37.221,37.221,0,0,1-13.9,20.3q-10.428,7.821-25.912,7.821a43.767,43.767,0,0,1-22.041-5.53,39.144,39.144,0,0,1-15.247-15.721q-5.53-10.191-5.53-23.621t5.372-23.542a37.711,37.711,0,0,1,15.089-15.563,44.916,44.916,0,0,1,22.357-5.451,43.454,43.454,0,0,1,21.8,5.372,37.2,37.2,0,0,1,14.615,14.773A43.6,43.6,0,0,1,959.218-46.61Zm-14.852-3a26.522,26.522,0,0,0-3.634-14.141,23.632,23.632,0,0,0-9.875-9.006,30.8,30.8,0,0,0-13.825-3.081,26.648,26.648,0,0,0-18.565,6.952Q890.8-61.936,889.7-49.612Z" transform="translate(-12.166 120.238)" fill="url(#linear-gradient)"/>
</svg>
