<svg xmlns="http://www.w3.org/2000/svg" xmlns:xlink="http://www.w3.org/1999/xlink" width="1117.218" height="118.184" viewBox="0 0 1117.218 118.184">
  <defs>
    <linearGradient id="linear-gradient" x1="0.851" y1="1.166" x2="0.232" y2="-1.503" gradientUnits="objectBoundingBox">
      <stop offset="0" stop-color="#53cccc"/>
      <stop offset="0.154" stop-color="#09c4e6"/>
      <stop offset="0.361" stop-color="#08baf6"/>
      <stop offset="0.733" stop-color="#069af5"/>
      <stop offset="1" stop-color="#107bd8"/>
    </linearGradient>
  </defs>
  <path id="getintouch" d="M95.906-55.3h11.218v42.186A54.03,54.03,0,0,1,88.8-2.686,68.133,68.133,0,0,1,66.518.948,61.136,61.136,0,0,1,36.656-6.32,53.639,53.639,0,0,1,15.8-26.465,55.75,55.75,0,0,1,8.216-55.3,55.75,55.75,0,0,1,15.8-84.135,53.639,53.639,0,0,1,36.656-104.28a61.463,61.463,0,0,1,30.02-7.268A64.793,64.793,0,0,1,89.9-107.519,46.166,46.166,0,0,1,107.756-95.59l-7.268,7.426Q87.374-101.12,67.15-101.12A49.664,49.664,0,0,0,42.9-95.195,43.555,43.555,0,0,0,25.912-78.763,45.515,45.515,0,0,0,19.75-55.3a45.1,45.1,0,0,0,6.162,23.384A44.451,44.451,0,0,0,42.818-15.484a48.7,48.7,0,0,0,24.174,6q17.064,0,28.914-8.532ZM222.78-38.078H153.26q.948,12.956,9.954,20.935t22.752,7.979a35.851,35.851,0,0,0,14.22-2.765A31.063,31.063,0,0,0,211.4-20.066l6.32,7.268A35.588,35.588,0,0,1,203.9-2.686,46.757,46.757,0,0,1,185.65.79a46.14,46.14,0,0,1-22.673-5.451,39.3,39.3,0,0,1-15.4-15.089,43.019,43.019,0,0,1-5.53-21.8,44.54,44.54,0,0,1,5.293-21.8,38.327,38.327,0,0,1,14.536-15.01,40.583,40.583,0,0,1,20.777-5.372,40.159,40.159,0,0,1,20.7,5.372,38.082,38.082,0,0,1,14.378,14.931,44.958,44.958,0,0,1,5.214,21.883ZM182.648-74.1q-12.008,0-20.145,7.663T153.26-46.452h58.934q-1.106-12.324-9.243-19.987T182.648-74.1ZM302.254-5.056a21.242,21.242,0,0,1-7.821,4.345,31.5,31.5,0,0,1-9.717,1.5Q273.024.79,266.7-5.53t-6.32-17.854V-73.628H245.532v-9.48h14.852v-18.17H271.6v18.17h25.28v9.48H271.6v49.612q0,7.426,3.713,11.3T285.98-8.848A20.637,20.637,0,0,0,292.7-9.954a16.694,16.694,0,0,0,5.609-3.16ZM391.682-110.6h11.692V0H391.682Zm100.33,26.86q15.642,0,24.885,9.085T526.14-48.19V0H514.922V-47.084q0-12.956-6.478-19.75t-18.486-6.794q-13.43,0-21.251,7.979t-7.821,22.041V0H449.668V-83.108h10.744v15.326a31.208,31.208,0,0,1,12.719-11.771A40.711,40.711,0,0,1,492.012-83.74Zm155.156-16.748H608.3V-110.6h89.428v10.112H658.86V0H647.168ZM751.922.79a43.194,43.194,0,0,1-21.646-5.451A39.753,39.753,0,0,1,715.108-19.75a43.019,43.019,0,0,1-5.53-21.8,43.019,43.019,0,0,1,5.53-21.8,39.189,39.189,0,0,1,15.168-15.01,43.7,43.7,0,0,1,21.646-5.372,43.7,43.7,0,0,1,21.646,5.372,38.638,38.638,0,0,1,15.089,15.01,43.509,43.509,0,0,1,5.451,21.8,43.509,43.509,0,0,1-5.451,21.8A39.19,39.19,0,0,1,773.568-4.661,43.194,43.194,0,0,1,751.922.79Zm0-9.954A31.36,31.36,0,0,0,767.8-13.193a28.089,28.089,0,0,0,10.981-11.455,35.442,35.442,0,0,0,3.95-16.906,35.442,35.442,0,0,0-3.95-16.906A28.089,28.089,0,0,0,767.8-69.915a31.36,31.36,0,0,0-15.879-4.029,31.36,31.36,0,0,0-15.879,4.029,28.614,28.614,0,0,0-11.06,11.455,34.878,34.878,0,0,0-4.029,16.906,34.878,34.878,0,0,0,4.029,16.906,28.614,28.614,0,0,0,11.06,11.455A31.36,31.36,0,0,0,751.922-9.164ZM904.55-83.108V0H893.806V-15.168A30.768,30.768,0,0,1,881.64-3.4,36.606,36.606,0,0,1,863.944.79Q847.67.79,838.269-8.3t-9.4-26.623v-48.19h11.218v47.084q0,13.114,6.478,19.908T865.05-9.322q13.114,0,20.7-7.979t7.584-22.2V-83.108ZM983.076.79a44.787,44.787,0,0,1-22.041-5.372,38.887,38.887,0,0,1-15.247-15.089,43.453,43.453,0,0,1-5.53-21.883,43.019,43.019,0,0,1,5.53-21.8,39.039,39.039,0,0,1,15.247-15.01,44.787,44.787,0,0,1,22.041-5.372,42.679,42.679,0,0,1,19.2,4.187,31.879,31.879,0,0,1,13.351,12.245l-8.374,5.688a26.2,26.2,0,0,0-10.428-9.243,30.946,30.946,0,0,0-13.746-3.081,32.55,32.55,0,0,0-16.2,4.029A28.312,28.312,0,0,0,955.663-58.46a34.878,34.878,0,0,0-4.029,16.906,34.757,34.757,0,0,0,4.029,16.985,28.44,28.44,0,0,0,11.218,11.376,32.55,32.55,0,0,0,16.2,4.029,31.624,31.624,0,0,0,13.746-3,25.608,25.608,0,0,0,10.428-9.164l8.374,5.688A31.772,31.772,0,0,1,1002.194-3.4,42.815,42.815,0,0,1,983.076.79Zm108.23-84.53q15.642,0,24.885,9.085t9.243,26.465V0h-11.218V-47.084q0-12.956-6.478-19.75t-18.486-6.794q-13.43,0-21.251,7.979t-7.821,22.041V0h-11.218V-117.236h11.218v48.664a30.415,30.415,0,0,1,12.64-11.218A41.48,41.48,0,0,1,1091.306-83.74Z" transform="translate(-8.216 117.236)" fill="url(#linear-gradient)"/>
</svg>
