<svg xmlns="http://www.w3.org/2000/svg" width="31" height="31" viewBox="0 0 31 31">
  <g id="Icon_feather-instagram" data-name="Icon feather-instagram" transform="translate(-1.5 -1.5)">
    <path id="Path_4" data-name="Path 4" d="M10,3H24a7,7,0,0,1,7,7V24a7,7,0,0,1-7,7H10a7,7,0,0,1-7-7V10a7,7,0,0,1,7-7Z" fill="none" stroke="#08b7f6" stroke-linecap="round" stroke-linejoin="round" stroke-width="3"/>
    <path id="Path_5" data-name="Path 5" d="M24,17.055A6,6,0,1,1,18.945,12,6,6,0,0,1,24,17.055Z" transform="translate(-1.007 -0.993)" fill="none" stroke="#08b7f6" stroke-linecap="round" stroke-linejoin="round" stroke-width="3"/>
    <path id="Path_6" data-name="Path 6" d="M26.25,9.75h0" transform="translate(-1.55 -0.45)" fill="none" stroke="#08b7f6" stroke-linecap="round" stroke-linejoin="round" stroke-width="3"/>
  </g>
</svg>
