<svg xmlns="http://www.w3.org/2000/svg" width="134.05" height="59.879" viewBox="0 0 134.05 59.879">
  <g id="linkedin" transform="translate(-1402.449 -6456.843)">
    <g id="Page_break" transform="translate(1402.449 6516.723) rotate(-90)">
      <g id="diff_bar" data-name="diff bar" transform="translate(3.723 14.05)">
        <rect id="diff_bar-2" data-name="diff bar" width="120" height="2" transform="translate(2) rotate(90)" fill="#fff"/>
      </g>
      <path id="Icon_metro-cross" data-name="Icon metro-cross" d="M9.909,8.034h0L6.875,5,9.909,1.966h0a.313.313,0,0,0,0-.442L8.476.091a.313.313,0,0,0-.442,0h0L5,3.125,1.966.091h0a.313.313,0,0,0-.442,0L.091,1.524a.313.313,0,0,0,0,.442h0L3.125,5,.091,8.034h0a.313.313,0,0,0,0,.442L1.524,9.909a.313.313,0,0,0,.442,0h0L5,6.875,8.034,9.909h0a.313.313,0,0,0,.442,0L9.909,8.476a.313.313,0,0,0,0-.442Z" transform="translate(0 0)" fill="#fff"/>
    </g>
    <g id="linkedinlogo">
      <path id="Path_1" data-name="Path 1" d="M23.234,12a8.234,8.234,0,0,1,8.234,8.234V29.84H25.979V20.234a2.745,2.745,0,0,0-5.489,0V29.84H15V20.234A8.234,8.234,0,0,1,23.234,12Z" transform="translate(1415.449 6459.5)" fill="none" stroke="#fff" stroke-linecap="round" stroke-linejoin="round" stroke-width="3"/>
      <path id="Path_2" data-name="Path 2" d="M3,13.5H9v18H3Z" transform="translate(1415.449 6458)" fill="none" stroke="#fff" stroke-linecap="round" stroke-linejoin="round" stroke-width="3"/>
      <path id="Path_3" data-name="Path 3" d="M9,6A3,3,0,1,1,6,3,3,3,0,0,1,9,6Z" transform="translate(1415.449 6455.343)" fill="none" stroke="#fff" stroke-linecap="round" stroke-linejoin="round" stroke-width="3"/>
    </g>
    <text id="LinkedIN-2" data-name="LinkedIN" transform="translate(1457.5 6487)" fill="#555" font-size="14" font-family="Raleway" letter-spacing="0.02em"><tspan x="0" y="0">LinkedIN</tspan></text>
  </g>
</svg>
