<svg xmlns="http://www.w3.org/2000/svg" width="133.651" height="55.246" viewBox="0 0 133.651 55.246">
  <g id="twitter" transform="translate(-890.849 -6461.477)">
    <g id="Page_break" transform="translate(890.849 6516.723) rotate(-90)">
      <g id="diff_bar" data-name="diff bar" transform="translate(3.723 13.651)">
        <rect id="diff_bar-2" data-name="diff bar" width="120" height="2" transform="translate(2) rotate(90)" fill="#fff"/>
      </g>
      <path id="Icon_metro-cross" data-name="Icon metro-cross" d="M9.909,8.034h0L6.875,5,9.909,1.966h0a.313.313,0,0,0,0-.442L8.476.091a.313.313,0,0,0-.442,0h0L5,3.125,1.966.091h0a.313.313,0,0,0-.442,0L.091,1.524a.313.313,0,0,0,0,.442h0L3.125,5,.091,8.034h0a.313.313,0,0,0,0,.442L1.524,9.909a.313.313,0,0,0,.442,0h0L5,6.875,8.034,9.909h0a.313.313,0,0,0,.442,0L9.909,8.476a.313.313,0,0,0,0-.442Z" transform="translate(0 0)" fill="#fff"/>
    </g>
    <path id="Icon_feather-twitter" data-name="Icon feather-twitter" d="M34.5,4.5a16.35,16.35,0,0,1-4.71,2.3A6.72,6.72,0,0,0,18,11.295v1.5A15.99,15.99,0,0,1,4.5,6s-6,13.5,7.5,19.5a17.46,17.46,0,0,1-10.5,3c13.5,7.5,30,0,30-17.25A6.75,6.75,0,0,0,31.38,10,11.58,11.58,0,0,0,34.5,4.5Z" transform="translate(902.861 6458.609)" fill="none" stroke="#fff" stroke-linecap="round" stroke-linejoin="round" stroke-width="3"/>
    <text id="Twitter-2" data-name="Twitter" transform="translate(948.5 6487)" fill="#555" font-size="14" font-family="Raleway" letter-spacing="0.02em"><tspan x="0" y="0">Twitter</tspan></text>
  </g>
</svg>
